<svg xmlns="http://www.w3.org/2000/svg" viewBox="0 0 1600 900" role="img" aria-labelledby="title desc">
<title id="title">Farm field notes AI memory illustration</title>
<desc id="desc">A farm ledger, field map, phone voice assistant, and workflow nodes connected over cobalt blue farmland.</desc>
<defs>
  <linearGradient id="sky" x1="0" y1="0" x2="1" y2="1"><stop offset="0" stop-color="#06123d"/><stop offset="0.52" stop-color="#123a89"/><stop offset="1" stop-color="#f1d9a4"/></linearGradient>
  <linearGradient id="paper" x1="0" y1="0" x2="1" y2="1"><stop offset="0" stop-color="#fff7df"/><stop offset="1" stop-color="#d8b873"/></linearGradient>
  <filter id="grain"><feTurbulence type="fractalNoise" baseFrequency="0.9" numOctaves="3" stitchTiles="stitch"/><feColorMatrix type="saturate" values="0"/><feComponentTransfer><feFuncA type="table" tableValues="0 0.18"/></feComponentTransfer></filter>
  <filter id="shadow" x="-20%" y="-20%" width="140%" height="140%"><feDropShadow dx="0" dy="18" stdDeviation="22" flood-color="#02061a" flood-opacity="0.35"/></filter>
  <pattern id="halftone" width="18" height="18" patternUnits="userSpaceOnUse"><circle cx="4" cy="4" r="1.4" fill="#fff1c2" opacity="0.28"/></pattern>
</defs>
<rect width="1600" height="900" fill="url(#sky)"/>
<rect width="1600" height="900" fill="url(#halftone)" opacity="0.55"/>
<path d="M0 630 C220 560 370 645 560 590 C760 532 900 590 1110 540 C1290 500 1450 540 1600 500 L1600 900 L0 900 Z" fill="#081d4d" opacity="0.92"/>
<path d="M0 720 C240 660 410 740 640 685 C900 625 1120 700 1600 610 L1600 900 L0 900 Z" fill="#061334" opacity="0.98"/>
<g opacity="0.38" stroke="#f5d88f" stroke-width="2" fill="none"><path d="M90 812 C420 718 820 710 1510 655"/><path d="M120 868 C520 760 930 754 1520 690"/><path d="M390 900 C560 790 706 700 770 570"/><path d="M800 900 C865 790 930 680 1010 520"/><path d="M1210 900 C1225 780 1260 668 1340 510"/></g>
<g filter="url(#shadow)">
  <rect x="120" y="140" width="450" height="520" rx="18" fill="url(#paper)"/>
  <rect x="150" y="178" width="390" height="460" rx="8" fill="#fff4d2" opacity="0.72"/>
  <g stroke="#5b431f" opacity="0.38" stroke-width="3"><path d="M180 230H510"/><path d="M180 285H510"/><path d="M180 340H510"/><path d="M180 395H510"/><path d="M180 450H510"/><path d="M180 505H510"/><path d="M180 560H510"/><path d="M255 200V620"/><path d="M380 200V620"/></g>
  <g stroke="#1a255f" stroke-width="5" opacity="0.62" fill="none"><path d="M200 247c36-16 54 22 91 4s54-9 83 8"/><path d="M197 362c42 18 77-25 115-5 35 18 67-3 104 4"/><path d="M196 531c78-30 101 20 185-4 39-11 62-5 100 10"/></g>
</g>
<g filter="url(#shadow)">
  <rect x="970" y="172" width="250" height="510" rx="42" fill="#07102f" stroke="#f5d88f" stroke-width="4"/>
  <rect x="992" y="220" width="206" height="382" rx="18" fill="#0d2d78"/>
  <circle cx="1095" cy="635" r="22" fill="#f1d9a4" opacity="0.92"/>
  <g fill="none" stroke="#f8e4a8" stroke-width="10" stroke-linecap="round"><path d="M1040 408v-74"/><path d="M1076 430V310"/><path d="M1114 454V288"/><path d="M1150 420v-96"/></g>
</g>
<g filter="url(#shadow)">
  <rect x="690" y="188" width="210" height="112" rx="18" fill="#fff5d7"/><rect x="720" y="226" width="150" height="12" fill="#0b1b4d" opacity="0.55"/><rect x="720" y="254" width="108" height="12" fill="#0b1b4d" opacity="0.32"/>
  <rect x="720" y="392" width="220" height="118" rx="18" fill="#fff5d7"/><rect x="750" y="430" width="155" height="12" fill="#0b1b4d" opacity="0.55"/><rect x="750" y="458" width="120" height="12" fill="#0b1b4d" opacity="0.32"/>
  <rect x="1246" y="360" width="235" height="128" rx="18" fill="#fff5d7"/><rect x="1278" y="402" width="154" height="12" fill="#0b1b4d" opacity="0.55"/><rect x="1278" y="432" width="112" height="12" fill="#0b1b4d" opacity="0.32"/>
</g>
<g fill="none" stroke="#f6d98e" stroke-width="5" opacity="0.82"><path d="M570 380 C645 288 635 244 690 244"/><path d="M570 445 C650 460 675 450 720 450"/><path d="M940 450 C1030 452 1120 440 1246 424"/><path d="M1095 220 C1080 150 900 120 795 188"/></g>
<g fill="#f6d98e"><circle cx="570" cy="380" r="9"/><circle cx="690" cy="244" r="9"/><circle cx="720" cy="450" r="9"/><circle cx="1246" cy="424" r="9"/><circle cx="1095" cy="220" r="9"/></g>
<g transform="translate(1170 620)" filter="url(#shadow)"><path d="M0 70h250l-35 84H40z" fill="#f1c56b"/><rect x="24" y="34" width="160" height="60" rx="16" fill="#112b61"/><circle cx="64" cy="160" r="32" fill="#061334" stroke="#f1d9a4" stroke-width="8"/><circle cx="194" cy="160" r="32" fill="#061334" stroke="#f1d9a4" stroke-width="8"/></g>
<rect width="1600" height="900" filter="url(#grain)" opacity="0.45"/>
</svg>
